<svg width="49" height="50" viewBox="0 0 49 50" fill="none" xmlns="http://www.w3.org/2000/svg">
<ellipse cx="24.2341" cy="24.6551" rx="24.2341" ry="24.6551" fill="#FFF3F3"/>
<path d="M23.4685 13.8607C23.2221 13.9797 23.1253 14.1888 23.1253 14.5907C23.1253 14.9023 23.1209 14.9228 23.0285 14.9392C22.4741 15.0376 22.1573 15.1032 21.9065 15.1729L21.6073 15.2591V16.9649C21.6073 18.6708 21.6073 18.6749 21.5062 18.8225C21.273 19.1751 20.7626 19.1997 20.4414 18.8799L20.3314 18.7692L20.3182 17.3586C20.3138 16.5835 20.2918 15.948 20.2698 15.948C20.0806 15.948 19.0159 16.9403 18.6463 17.457C17.9423 18.4411 17.6431 19.3433 17.5947 20.6103L17.5683 21.3115L17.1811 21.3279C16.8776 21.3361 16.772 21.3567 16.6752 21.4264C16.4552 21.5781 16.376 21.7134 16.376 21.9348C16.376 22.1645 16.464 22.308 16.7016 22.4556L16.8468 22.5499H23.7853H30.7238L30.8689 22.4556C31.1065 22.308 31.1945 22.1645 31.1945 21.9348C31.1945 21.7134 31.1153 21.5781 30.8953 21.4264C30.7985 21.3567 30.693 21.3361 30.3894 21.3279L30.0022 21.3115L29.9758 20.6103C29.9494 19.8599 29.8702 19.4171 29.6634 18.843C29.3818 18.068 28.9022 17.3258 28.2863 16.723C27.9035 16.3498 27.3975 15.948 27.3095 15.948C27.2743 15.948 27.2611 16.3375 27.2611 17.3012C27.2611 18.7651 27.2611 18.7733 27.0191 18.9824C26.9223 19.0685 26.8607 19.0849 26.6319 19.0849C26.3283 19.0849 26.1875 19.0152 26.0424 18.7979C25.9676 18.6831 25.9632 18.5518 25.9632 16.9649V15.2591L25.664 15.1729C25.4132 15.1032 25.0964 15.0376 24.5464 14.9392C24.4496 14.9228 24.4452 14.9023 24.4452 14.5907C24.4452 14.1806 24.3484 13.9797 24.0932 13.8566C23.8777 13.7541 23.6797 13.7541 23.4685 13.8607ZM24.1636 14.9228H24.4452L24.4364 17.1945C24.4232 19.4171 24.4232 19.4704 24.3308 19.5811C24.168 19.7861 24.014 19.864 23.7853 19.864C23.5565 19.864 23.4025 19.7861 23.2397 19.5811C23.1473 19.4704 23.1473 19.4171 23.1341 17.1986L23.1253 14.9269L23.4421 14.9146C23.6181 14.9064 23.7897 14.9023 23.8205 14.9105C23.8557 14.9187 24.0096 14.9228 24.1636 14.9228Z" fill="#ED0E29"/>
<path d="M20.8155 14.9226C20.4724 14.9923 20.3096 15.2178 20.3096 15.6156C20.3096 15.755 20.3228 15.8657 20.3404 15.8657C20.3536 15.8657 20.4592 15.8124 20.5692 15.7427C20.6836 15.6771 20.9475 15.5459 21.1587 15.4557C21.3699 15.3613 21.5415 15.2752 21.5415 15.2588C21.5415 15.2014 21.4051 15.0456 21.3083 15.0005C21.1631 14.9267 20.9607 14.8939 20.8155 14.9226Z" fill="#ED0E29"/>
<path d="M26.4915 14.9226C26.4211 14.939 26.3155 14.9718 26.2583 15.0005C26.1571 15.0497 26.0031 15.2383 26.0383 15.2711C26.0515 15.2834 26.2363 15.3737 26.4563 15.4721C26.6763 15.5705 26.9359 15.7017 27.0327 15.7591C27.1339 15.8165 27.2263 15.8657 27.2395 15.8657C27.2923 15.8657 27.2571 15.3531 27.1911 15.2301C27.0767 15.0005 26.7731 14.8693 26.4915 14.9226Z" fill="#ED0E29"/>
<path d="M18.418 25.0594C18.418 26.5274 18.462 26.9047 18.704 27.5854C19.4343 29.6234 21.4802 30.9971 23.7857 30.9971C26.0912 30.9971 28.1327 29.6275 28.8675 27.5854C29.1095 26.9047 29.1535 26.5274 29.1535 25.0594V23.78H23.7857H18.418V25.0594Z" fill="#ED0E29"/>
<path d="M19.4736 30.9357C19.4736 31.1161 19.3812 31.2883 19.2272 31.4031L19.1084 31.4892L19.1876 31.6861C19.4912 32.4365 20.0852 33.2361 20.7099 33.7323C21.5195 34.372 22.4303 34.7041 23.5434 34.7574C24.9249 34.823 26.1877 34.3802 27.1248 33.4985C27.6396 33.0188 28.1324 32.3012 28.3832 31.6861L28.4624 31.4892L28.3436 31.4031C28.194 31.2924 28.128 31.1776 28.0972 30.9685L28.0752 30.7921L27.6792 31.0587C27.226 31.3621 26.3901 31.764 25.8885 31.9198C25.0217 32.1863 23.8602 32.293 22.9758 32.1904C21.8099 32.051 20.5471 31.5672 19.7068 30.9316C19.6056 30.8537 19.5132 30.7921 19.5 30.7921C19.4868 30.7921 19.4736 30.8578 19.4736 30.9357Z" fill="#ED0E29"/>
<path d="M16.3273 32.67C14.8181 33.322 14.3562 33.5435 13.7534 33.9207C13.419 34.1298 12.5654 34.7285 12.5654 34.7531C12.5654 34.7613 14.2242 34.7695 16.2569 34.7695H19.9439L19.4995 34.3472C19.2575 34.1175 18.9276 33.7608 18.778 33.5599C18.514 33.2113 17.9332 32.1903 17.9332 32.0754C17.9332 32.0467 17.9068 32.0221 17.8804 32.0221C17.8496 32.0221 17.15 32.3133 16.3273 32.67Z" fill="#ED0E29"/>
<path d="M29.6372 32.0713C29.6372 32.1615 29.1796 33.0104 28.9684 33.3138C28.6868 33.7239 28.2821 34.179 27.9213 34.4948L27.6133 34.7695H31.3091C33.3418 34.7695 35.005 34.7613 35.005 34.7531C35.005 34.6793 33.5266 33.7239 32.9766 33.4409C32.5807 33.24 29.7648 32.0221 29.6944 32.0221C29.6636 32.0221 29.6372 32.0467 29.6372 32.0713Z" fill="#ED0E29"/>
</svg>
