<svg width="49" height="50" viewBox="0 0 49 50" fill="none" xmlns="http://www.w3.org/2000/svg">
<ellipse cx="24.2341" cy="24.6551" rx="24.2341" ry="24.6551" fill="#FFF3F3"/>
<path d="M33.7825 14.4125C33.1802 14.7726 32.6833 15.0812 32.6749 15.097C32.6707 15.1129 32.8686 15.3186 33.1213 15.552L33.5719 15.9754L34.2879 14.919C34.6837 14.3374 35.0038 13.8428 35.0038 13.819C35.0038 13.7083 34.7848 13.8151 33.7825 14.4125Z" fill="#ED0E29"/>
<path d="M31.0027 15.0217C30.9353 15.0612 30.7711 15.1958 30.6447 15.3184L30.4131 15.54L31.7607 16.8101L33.1084 18.0762L33.4158 17.7794C33.6938 17.5064 33.7191 17.4669 33.7191 17.3125C33.7191 17.1503 33.7064 17.1385 32.6157 16.1018C32.005 15.5281 31.4575 15.0335 31.3944 15.0019C31.2427 14.9267 31.1543 14.9307 31.0027 15.0217Z" fill="#ED0E29"/>
<path d="M26.2449 19.4569L22.623 22.8596L23.9707 24.1257L25.3184 25.3918L28.9402 21.9892L32.562 18.5865L31.2144 17.3203L29.8667 16.0542L26.2449 19.4569Z" fill="#ED0E29"/>
<path d="M32.6758 19.4688L32.2842 19.8408L32.4316 19.9634C32.6379 20.1335 32.8275 20.1612 33.0549 20.0544C33.4339 19.8843 33.4971 19.4965 33.2023 19.1879C33.1559 19.1404 33.1054 19.1009 33.0928 19.1009C33.0759 19.1009 32.8906 19.267 32.6758 19.4688Z" fill="#ED0E29"/>
<path d="M31.3282 20.7353L30.9365 21.1032L31.0334 21.1863C31.185 21.3129 31.2987 21.3564 31.4882 21.3564C32.0062 21.3564 32.221 20.8342 31.8546 20.4543C31.8083 20.4069 31.7578 20.3673 31.7451 20.3673C31.7283 20.3673 31.543 20.5335 31.3282 20.7353Z" fill="#ED0E29"/>
<path d="M30.0021 21.9812C29.8 22.1711 29.6357 22.3491 29.6357 22.3768C29.6357 22.4006 29.7115 22.4718 29.8042 22.5272C30.2127 22.7844 30.6886 22.5509 30.6886 22.092C30.6886 21.9495 30.6633 21.8862 30.558 21.7715C30.4865 21.6963 30.4149 21.633 30.398 21.633C30.3854 21.633 30.2043 21.7873 30.0021 21.9812Z" fill="#ED0E29"/>
<path d="M28.6535 23.2474C28.4514 23.4373 28.2871 23.6114 28.2871 23.6352C28.2871 23.7143 28.5566 23.8607 28.7419 23.8805C29.0915 23.9161 29.34 23.7024 29.34 23.3661C29.34 23.1881 29.1757 22.8992 29.0746 22.8992C29.0452 22.8992 28.8557 23.0535 28.6535 23.2474Z" fill="#ED0E29"/>
<path d="M21.2208 24.1771C20.408 24.9486 20.3701 24.9921 20.3701 25.1385C20.3701 25.2849 20.4122 25.3285 21.5409 26.3888L22.7075 27.4888H22.8928C23.0781 27.4888 23.0823 27.4848 23.9246 26.6974L24.7711 25.9061L23.4234 24.64L22.0715 23.3699L21.2208 24.1771Z" fill="#ED0E29"/>
<path d="M17.8648 29.3525C16.2771 30.8481 15.0263 31.9916 14.9505 32.0233C14.761 32.1024 14.6346 32.047 14.2977 31.7305L14.0114 31.4693L13.7376 31.7226L13.4639 31.9758L13.7629 32.2607C14.1882 32.6642 14.4114 32.7711 14.8115 32.7711C15.06 32.7711 15.1695 32.7473 15.3169 32.6761C15.4475 32.6128 16.4034 31.7463 18.3576 29.9104L21.2129 27.2318L20.9518 26.9865C20.8086 26.848 20.6781 26.7372 20.6654 26.7372C20.6528 26.7372 19.3936 27.9123 17.8648 29.3525Z" fill="#ED0E29"/>
<path d="M24.3291 27.3111L23.7227 27.8808L23.8195 28.0707C23.9585 28.3398 26.9865 33.8355 27.0076 33.8553C27.016 33.8672 27.0918 33.8118 27.176 33.7366C27.4961 33.4478 27.6561 33.0403 27.5761 32.704C27.5424 32.5615 25.0829 26.9906 24.965 26.7888C24.9482 26.7571 24.7208 26.9392 24.3291 27.3111Z" fill="#ED0E29"/>
<path d="M25.8822 26.9627C25.9285 27.0655 26.038 27.3227 26.1306 27.5284L26.2991 27.9043L27.3857 28.1694C28.5059 28.4385 28.8976 28.4899 29.1587 28.3949C29.2218 28.3752 29.3987 28.2802 29.5461 28.1892L29.8157 28.027L27.8826 27.4216C26.8171 27.0893 25.9159 26.8044 25.8737 26.7925C25.8064 26.7727 25.8064 26.7846 25.8822 26.9627Z" fill="#ED0E29"/>
</svg>
