<svg id="Camada_1" data-name="Camada 1" xmlns="http://www.w3.org/2000/svg" xmlns:xlink="http://www.w3.org/1999/xlink" viewBox="0 0 450.15 323.9"><defs><style>.cls-1{fill:#fff;}.cls-1,.cls-4,.cls-5,.cls-6{fill-rule:evenodd;}.cls-2{fill:#e30613;}.cls-3,.cls-4{fill:#181b1c;}.cls-5{fill:#e20e17;}.cls-6{fill:url(#Gradiente_sem_nome_30);}</style><linearGradient id="Gradiente_sem_nome_30" x1="287.75" y1="331.74" x2="287.75" y2="251.63" gradientUnits="userSpaceOnUse"><stop offset="0" stop-color="#5b5957"/><stop offset="0.48" stop-color="#a9a09e"/><stop offset="1" stop-color="#a9a09e"/></linearGradient></defs><title>Unipro_logotipo_2022</title><path class="cls-1" d="M186.59,417.85c7.79-50.44,6.83-100.71,0-151.24,0-12.35,10.77-22.42,24.17-22.42,54.74,8.49,107.11,8.32,157.47,0,13.13,0,24,10.07,24,22.42a624.19,624.19,0,0,0,0,151.24c0,12.44-10.86,22.42-24,22.42a657.82,657.82,0,0,0-157.47,0c-13.4,0-24.17-10-24.17-22.42Z" transform="translate(-72.56 -244.19)"/><path class="cls-2" d="M144,490.81v-33H131.5v33.37c0,14.45-6.39,20.23-23.29,20.23s-22.95-5.61-22.95-20.23V457.79H72.56v33c0,22.33,11.21,30.47,35.65,30.47,24.61,0,35.82-7.88,35.82-30.47Zm85.38,29.6h0V457.79H216.8v50.44l-44.92-50.44H155.5v62.62h12.61V469.79l44.75,50.62Zm25.93,0h0V457.79H242.2v62.62Z" transform="translate(-72.56 -244.19)"/><path class="cls-2" d="M144,490.81v-33H131.5v33.37c0,14.45-6.39,20.23-23.29,20.23s-22.95-5.61-22.95-20.23V457.79H72.56v33c0,22.33,11.21,30.47,35.65,30.47,24.61,0,35.82-7.88,35.82-30.47Zm85.38,29.6h0V457.79H216.8v50.44l-44.92-50.44H155.5v62.62h12.61V469.79l44.75,50.62Zm25.93,0h0V457.79H242.2v62.62Z" transform="translate(-72.56 -244.19)"/><path class="cls-1" d="M186.59,417.85c7.79-50.44,6.83-100.71,0-151.24,0-12.35,10.77-22.42,24.17-22.42,54.74,8.49,107.11,8.32,157.47,0,13.13,0,24,10.07,24,22.42a624.19,624.19,0,0,0,0,151.24c0,12.44-10.86,22.42-24,22.42a657.82,657.82,0,0,0-157.47,0c-13.4,0-24.17-10-24.17-22.42Z" transform="translate(-72.56 -244.19)"/><path class="cls-3" d="M122.94,548.48a1.44,1.44,0,0,1-.42.5,1,1,0,0,1-.55.15,1.36,1.36,0,0,1-.74-.25c-.27-.17-.59-.36-1-.56a7.55,7.55,0,0,0-1.3-.57,5.45,5.45,0,0,0-1.76-.25,5.11,5.11,0,0,0-1.6.22,3.45,3.45,0,0,0-1.16.61,2.44,2.44,0,0,0-.69.94,3,3,0,0,0-.23,1.21,2.07,2.07,0,0,0,.46,1.38,3.92,3.92,0,0,0,1.24.95,12,12,0,0,0,1.75.71c.65.2,1.33.42,2,.66a18.5,18.5,0,0,1,2,.81,7.57,7.57,0,0,1,1.75,1.18,5.48,5.48,0,0,1,1.23,1.74,6.06,6.06,0,0,1,.47,2.5,8,8,0,0,1-.55,3,6.81,6.81,0,0,1-1.6,2.44,7.57,7.57,0,0,1-2.58,1.63,9.45,9.45,0,0,1-3.49.6,11,11,0,0,1-2.22-.22,12.15,12.15,0,0,1-2.1-.63,11,11,0,0,1-1.9-1,9.9,9.9,0,0,1-1.57-1.27l1.3-2.11a1.43,1.43,0,0,1,.42-.39,1.12,1.12,0,0,1,.56-.15,1.56,1.56,0,0,1,.88.33c.32.23.7.47,1.13.75a9.09,9.09,0,0,0,1.53.74,6,6,0,0,0,2.11.33,4.29,4.29,0,0,0,2.91-.89,3.17,3.17,0,0,0,1-2.55,2.36,2.36,0,0,0-.47-1.52,3.58,3.58,0,0,0-1.23-1,9,9,0,0,0-1.75-.68c-.66-.19-1.32-.39-2-.61a18.79,18.79,0,0,1-2-.78,6.41,6.41,0,0,1-1.75-1.2,5.46,5.46,0,0,1-1.23-1.83,6.89,6.89,0,0,1-.47-2.73,6.44,6.44,0,0,1,.51-2.51,6.64,6.64,0,0,1,1.5-2.18,7.39,7.39,0,0,1,2.42-1.52,9,9,0,0,1,3.31-.57,11.17,11.17,0,0,1,3.86.65,8.74,8.74,0,0,1,3,1.83Z" transform="translate(-72.56 -244.19)"/><path class="cls-3" d="M133.2,547.68v6.55h8.28v3.39H133.2v6.69h10.51v3.51H128.78V544.18h14.93v3.5Z" transform="translate(-72.56 -244.19)"/><path class="cls-3" d="M162,564.19v3.63H148.09V544.18h4.4v20Z" transform="translate(-72.56 -244.19)"/><path class="cls-3" d="M185.86,567.82h-3.4a1.46,1.46,0,0,1-.93-.29,1.73,1.73,0,0,1-.54-.71L179.22,562h-9.8l-1.77,4.82a1.63,1.63,0,0,1-.51.69,1.39,1.39,0,0,1-.93.31h-3.44l9.31-23.64h4.49Zm-7.77-8.93L175.21,551c-.14-.35-.29-.76-.44-1.24s-.31-1-.46-1.56c-.14.56-.29,1.08-.44,1.57s-.3.9-.44,1.26l-2.87,7.83Z" transform="translate(-72.56 -244.19)"/><path class="cls-3" d="M208.76,544.18v23.64H206.5a2,2,0,0,1-.87-.17,2.11,2.11,0,0,1-.68-.58l-12.36-15.76c.07.72.1,1.38.1,2v14.52h-3.88V544.18h2.31a3.43,3.43,0,0,1,.48,0,1,1,0,0,1,.36.09,1,1,0,0,1,.3.22,3.06,3.06,0,0,1,.33.36L205,560.71c0-.38-.06-.76-.08-1.13s0-.71,0-1V544.18Z" transform="translate(-72.56 -244.19)"/><path class="cls-3" d="M231.05,547.79h-7.13v20h-4.41v-20h-7.13v-3.61h18.67Z" transform="translate(-72.56 -244.19)"/><path class="cls-3" d="M239.07,547.68v6.55h8.28v3.39h-8.28v6.69h10.51v3.51H234.65V544.18h14.93v3.5Z" transform="translate(-72.56 -244.19)"/><path class="cls-3" d="M266.57,548.48a1.44,1.44,0,0,1-.42.5,1,1,0,0,1-.55.15,1.36,1.36,0,0,1-.74-.25c-.27-.17-.59-.36-1-.56a7.91,7.91,0,0,0-1.3-.57,5.5,5.5,0,0,0-1.76-.25,5.22,5.22,0,0,0-1.61.22,3.49,3.49,0,0,0-1.15.61,2.58,2.58,0,0,0-.7.94,3.18,3.18,0,0,0-.22,1.21,2.07,2.07,0,0,0,.46,1.38,3.81,3.81,0,0,0,1.24.95,11.57,11.57,0,0,0,1.75.71q1,.3,2,.66a17.58,17.58,0,0,1,2,.81,7.43,7.43,0,0,1,1.76,1.18,5.48,5.48,0,0,1,1.23,1.74,6.06,6.06,0,0,1,.47,2.5,8,8,0,0,1-.55,3,7,7,0,0,1-1.6,2.44,7.57,7.57,0,0,1-2.58,1.63,9.49,9.49,0,0,1-3.49.6,11,11,0,0,1-2.22-.22,12.26,12.26,0,0,1-2.11-.63,11.26,11.26,0,0,1-1.89-1,9.47,9.47,0,0,1-1.57-1.27l1.3-2.11a1.31,1.31,0,0,1,.42-.39,1.09,1.09,0,0,1,.56-.15,1.58,1.58,0,0,1,.88.33c.32.23.69.47,1.13.75a9.09,9.09,0,0,0,1.53.74,6,6,0,0,0,2.1.33,4.3,4.3,0,0,0,2.92-.89,3.2,3.2,0,0,0,1-2.55,2.36,2.36,0,0,0-.47-1.52,3.58,3.58,0,0,0-1.23-1,8.84,8.84,0,0,0-1.76-.68c-.65-.19-1.32-.39-2-.61a18.79,18.79,0,0,1-2-.78,6.41,6.41,0,0,1-1.75-1.2,5.63,5.63,0,0,1-1.24-1.83,7.08,7.08,0,0,1-.46-2.73,6.44,6.44,0,0,1,.51-2.51,6.64,6.64,0,0,1,1.5-2.18,7.39,7.39,0,0,1,2.42-1.52,8.93,8.93,0,0,1,3.31-.57,11.17,11.17,0,0,1,3.86.65,8.84,8.84,0,0,1,3,1.83Z" transform="translate(-72.56 -244.19)"/><path class="cls-3" d="M285.27,547.68v6.55h8.28v3.39h-8.28v6.69h10.51v3.51H280.85V544.18h14.93v3.5Z" transform="translate(-72.56 -244.19)"/><path class="cls-3" d="M328.89,567.82h-3.41a1.46,1.46,0,0,1-.93-.29,1.73,1.73,0,0,1-.54-.71L322.24,562h-9.8l-1.77,4.82a1.61,1.61,0,0,1-.5.69,1.44,1.44,0,0,1-.94.31H305.8l9.31-23.64h4.48Zm-7.78-8.93L318.23,551c-.14-.35-.29-.76-.44-1.24s-.3-1-.46-1.56c-.14.56-.29,1.08-.44,1.57s-.3.9-.44,1.26l-2.86,7.83Z" transform="translate(-72.56 -244.19)"/><path class="cls-3" d="M352.85,556a12.73,12.73,0,0,1-.87,4.77,10.69,10.69,0,0,1-6.22,6.18,13.29,13.29,0,0,1-4.91.87h-9V544.18h9a13.09,13.09,0,0,1,4.91.88,11.07,11.07,0,0,1,3.78,2.43,10.88,10.88,0,0,1,2.44,3.74A12.73,12.73,0,0,1,352.85,556Zm-4.52,0a10.8,10.8,0,0,0-.52-3.49,7.37,7.37,0,0,0-1.48-2.62,6.56,6.56,0,0,0-2.36-1.64,8.11,8.11,0,0,0-3.12-.57h-4.6v16.64h4.6a8.11,8.11,0,0,0,3.12-.57,6.56,6.56,0,0,0,2.36-1.64,7.37,7.37,0,0,0,1.48-2.62A10.8,10.8,0,0,0,348.33,556Z" transform="translate(-72.56 -244.19)"/><path class="cls-3" d="M361.64,547.68v6.55h8.28v3.39h-8.28v6.69h10.5v3.51H357.22V544.18h14.92v3.5Z" transform="translate(-72.56 -244.19)"/><path class="cls-3" d="M389.13,548.48a1.44,1.44,0,0,1-.42.5.93.93,0,0,1-.54.15,1.42,1.42,0,0,1-.75-.25c-.27-.17-.59-.36-1-.56a7.55,7.55,0,0,0-1.3-.57,5.41,5.41,0,0,0-1.76-.25,5.16,5.16,0,0,0-1.6.22,3.4,3.4,0,0,0-1.15.61,2.37,2.37,0,0,0-.7.94,3.18,3.18,0,0,0-.23,1.21,2.08,2.08,0,0,0,.47,1.38,3.88,3.88,0,0,0,1.23.95,12.48,12.48,0,0,0,1.75.71c.66.2,1.33.42,2,.66a17.58,17.58,0,0,1,2,.81,7.37,7.37,0,0,1,1.75,1.18,5.51,5.51,0,0,1,1.24,1.74,6.07,6.07,0,0,1,.46,2.5,8.24,8.24,0,0,1-.54,3,6.84,6.84,0,0,1-1.61,2.44,7.39,7.39,0,0,1-2.58,1.63,9.4,9.4,0,0,1-3.48.6,11,11,0,0,1-2.23-.22,12.15,12.15,0,0,1-2.1-.63,11.26,11.26,0,0,1-1.89-1,9.47,9.47,0,0,1-1.57-1.27l1.29-2.11a1.35,1.35,0,0,1,.43-.39,1.08,1.08,0,0,1,.55-.15,1.59,1.59,0,0,1,.89.33c.31.23.69.47,1.13.75a8.39,8.39,0,0,0,1.53.74,5.93,5.93,0,0,0,2.1.33,4.29,4.29,0,0,0,2.91-.89,3.17,3.17,0,0,0,1-2.55,2.35,2.35,0,0,0-.46-1.52,3.62,3.62,0,0,0-1.24-1,8.74,8.74,0,0,0-1.75-.68c-.65-.19-1.32-.39-2-.61a18.64,18.64,0,0,1-2-.78,6.26,6.26,0,0,1-1.75-1.2,5.33,5.33,0,0,1-1.24-1.83,7.07,7.07,0,0,1-.47-2.73,6.45,6.45,0,0,1,.52-2.51,6.36,6.36,0,0,1,1.5-2.18,7.29,7.29,0,0,1,2.42-1.52,8.92,8.92,0,0,1,3.3-.57,11.22,11.22,0,0,1,3.87.65,8.84,8.84,0,0,1,3,1.83Z" transform="translate(-72.56 -244.19)"/><path class="cls-3" d="M399.39,567.82H395V544.18h4.42Z" transform="translate(-72.56 -244.19)"/><path class="cls-3" d="M425.45,544.18l-9.56,23.64h-4l-9.55-23.64h3.53a1.45,1.45,0,0,1,.93.28,1.64,1.64,0,0,1,.54.72l5.58,14.42c.19.47.37,1,.54,1.54s.33,1.15.48,1.76c.13-.61.27-1.2.42-1.76s.33-1.07.51-1.54l5.55-14.42a1.58,1.58,0,0,1,.52-.69,1.42,1.42,0,0,1,.94-.31Z" transform="translate(-72.56 -244.19)"/><path class="cls-3" d="M451,556a13,13,0,0,1-.86,4.81,11.23,11.23,0,0,1-2.43,3.84,10.81,10.81,0,0,1-3.78,2.52,13.65,13.65,0,0,1-9.8,0,11,11,0,0,1-3.79-2.52,11.42,11.42,0,0,1-2.45-3.84,13.88,13.88,0,0,1,0-9.62,11.42,11.42,0,0,1,2.45-3.84,11,11,0,0,1,3.79-2.52,12.64,12.64,0,0,1,4.89-.91,13.23,13.23,0,0,1,3.39.42,11.74,11.74,0,0,1,2.91,1.17,11.07,11.07,0,0,1,2.39,1.85,11.3,11.3,0,0,1,1.79,2.43,12,12,0,0,1,1.12,2.91A14.14,14.14,0,0,1,451,556Zm-4.5,0a10.8,10.8,0,0,0-.52-3.49,7.54,7.54,0,0,0-1.49-2.62,6.57,6.57,0,0,0-2.35-1.66,8.8,8.8,0,0,0-6.23,0,6.52,6.52,0,0,0-2.36,1.66,7.4,7.4,0,0,0-1.5,2.62,12,12,0,0,0,0,7,7.4,7.4,0,0,0,1.5,2.62,6.47,6.47,0,0,0,2.36,1.64,8.8,8.8,0,0,0,6.23,0,6.52,6.52,0,0,0,2.35-1.64,7.54,7.54,0,0,0,1.49-2.62A10.8,10.8,0,0,0,446.46,556Z" transform="translate(-72.56 -244.19)"/><path class="cls-3" d="M467.93,548.48a1.54,1.54,0,0,1-.41.5,1,1,0,0,1-.55.15,1.42,1.42,0,0,1-.75-.25c-.26-.17-.58-.36-1-.56a7.91,7.91,0,0,0-1.3-.57,5.5,5.5,0,0,0-1.76-.25,5.18,5.18,0,0,0-1.61.22,3.4,3.4,0,0,0-1.15.61,2.58,2.58,0,0,0-.7.94,3.18,3.18,0,0,0-.23,1.21,2.08,2.08,0,0,0,.47,1.38,3.81,3.81,0,0,0,1.24.95,11.57,11.57,0,0,0,1.75.71q1,.3,2,.66a17.58,17.58,0,0,1,2,.81,7.17,7.17,0,0,1,1.75,1.18,5.35,5.35,0,0,1,1.24,1.74,6.06,6.06,0,0,1,.47,2.5,8.24,8.24,0,0,1-.55,3,6.84,6.84,0,0,1-1.61,2.44,7.44,7.44,0,0,1-2.57,1.63,9.49,9.49,0,0,1-3.49.6,11.17,11.17,0,0,1-2.23-.22,12.15,12.15,0,0,1-2.1-.63,11.26,11.26,0,0,1-1.89-1,9.47,9.47,0,0,1-1.57-1.27l1.29-2.11a1.35,1.35,0,0,1,.43-.39,1.08,1.08,0,0,1,.55-.15,1.59,1.59,0,0,1,.89.33c.31.23.69.47,1.13.75a8.39,8.39,0,0,0,1.53.74,5.93,5.93,0,0,0,2.1.33,4.26,4.26,0,0,0,2.91-.89,3.17,3.17,0,0,0,1-2.55,2.36,2.36,0,0,0-.47-1.52,3.53,3.53,0,0,0-1.24-1,8.51,8.51,0,0,0-1.75-.68c-.65-.19-1.32-.39-2-.61a18,18,0,0,1-2-.78,6.26,6.26,0,0,1-1.75-1.2,5.33,5.33,0,0,1-1.24-1.83,7.08,7.08,0,0,1-.46-2.73,6.52,6.52,0,0,1,2-4.69,7.29,7.29,0,0,1,2.42-1.52,8.93,8.93,0,0,1,3.31-.57,11.21,11.21,0,0,1,3.86.65,8.84,8.84,0,0,1,3,1.83Z" transform="translate(-72.56 -244.19)"/><path class="cls-4" d="M522.71,454.2a12.57,12.57,0,0,1-.7,4.11,11.32,11.32,0,0,1-2,3.16,10.65,10.65,0,0,1-3.24,2.1,9.69,9.69,0,0,1-3.94.79,10.42,10.42,0,0,1-4-.79,10.87,10.87,0,0,1-3.07-2.1,8.59,8.59,0,0,1-2-3.16,10.63,10.63,0,0,1-.79-4.11,10.27,10.27,0,0,1,.79-4,8.22,8.22,0,0,1,2-3.24,12.54,12.54,0,0,1,3.07-2.1,10.24,10.24,0,0,1,4-.79,9.53,9.53,0,0,1,3.94.79,12.14,12.14,0,0,1,3.24,2.1,10.57,10.57,0,0,1,2,3.24,12.14,12.14,0,0,1,.7,4Zm-9.28-5.08h0a4.68,4.68,0,0,1,2.89.7,2.77,2.77,0,0,1,1.14,2.28c0,1.66-.88,2.62-2.63,3l2.89,4.21h-2.8l-2.45-3.77h-1.05v3.77h-2.28V449.12Zm-2,4.55h1.75c1.14,0,1.75-.52,1.75-1.49s-.61-1.31-1.75-1.31h-1.75Zm9.54.53h0a8.34,8.34,0,0,0-.7-3.33,6.76,6.76,0,0,0-1.66-2.63,7.13,7.13,0,0,0-2.54-1.66,8.15,8.15,0,0,0-3.24-.61,7.59,7.59,0,0,0-3.24.61,7,7,0,0,0-2.54,1.66,6.78,6.78,0,0,0-1.67,2.63,8.47,8.47,0,0,0-.61,3.33,8.6,8.6,0,0,0,.61,3.41,7.27,7.27,0,0,0,4.21,4.29,9.06,9.06,0,0,0,3.24.53,9.78,9.78,0,0,0,3.24-.53,8.4,8.4,0,0,0,2.54-1.66,8.3,8.3,0,0,0,1.66-2.63,8.44,8.44,0,0,0,.7-3.41Z" transform="translate(-72.56 -244.19)"/><path class="cls-3" d="M336.52,478.37c0-14.1-11.82-20.58-25-20.58H266.9v62.62h17V498.86h27.94c12.43,0,24.69-7.35,24.69-20.49Zm-17,0h0c0,4.29-3.76,7.09-8.32,7.09H283.89V471.19H311c4.9,0,8.58,2.54,8.58,7.18Zm99.4,42h0l-17.25-23.3c8.85-3.06,14.45-10.07,14.45-18.74,0-13.49-11.21-20.58-25-20.58H344.49v62.62h17V498.86h21.81L399,520.41Zm-19.88-42h0c0,4.2-3.67,7.09-8.23,7.09H361.48V471.19h29.08c4.73,0,8.49,2.54,8.49,7.18ZM504.76,489h0c0-22.34-18.57-32.5-41-32.5-22.24,0-40.81,10.25-40.81,32.5,0,22.42,18.31,32.75,40.81,32.75s41-10.33,41-32.75Zm-17.25,0h0c0,13.48-10.07,19.09-23.74,19.09s-23.64-5.61-23.64-19.09,10.07-19,23.64-19,23.74,5.61,23.74,19Z" transform="translate(-72.56 -244.19)"/><path class="cls-5" d="M234.72,328.72c.33.67.67,1.36,1,2.06a118.67,118.67,0,0,0,30.7,40.66,146.63,146.63,0,0,0,24.33,17.32c26.8-16.61,41.65-38.13,50.75-60.05l.58-.38a132.84,132.84,0,0,0,7.46-30C287,296.31,247.45,319.76,234.72,328.72Z" transform="translate(-72.56 -244.19)"/><path class="cls-3" d="M387.74,268.71c0-10.07-8.93-18.31-19.79-18.31-3.85.44-7.71.79-11.65,1.14,1.31,21.2,2.28,103.69-59.29,137.94l-1.31,1.57c21.89,11.13,50.44,16.64,90.2,6.57l.18-.17a832.21,832.21,0,0,1,1.66-128.74Z" transform="translate(-72.56 -244.19)"/><path class="cls-3" d="M191.39,268.71a627.13,627.13,0,0,1,0,149.49c0,10.25,9,18.39,19.79,18.39,52.38-5.07,104.48-5.6,156.77,0,10.86,0,19.79-8.14,19.79-18.39-.52-5.43-1-11-1.49-16.55a127.9,127.9,0,0,1-38.62,6.22C276.69,407.87,219,347.62,219,273.52a141.72,141.72,0,0,1,1.93-22.24c-3.25-.18-6.49-.53-9.73-.88-10.77,0-19.79,8.24-19.79,18.31Z" transform="translate(-72.56 -244.19)"/><path class="cls-6" d="M349.22,299.61a308.61,308.61,0,0,0,2.89-34.14v-13.4c-38.62,2.8-87.23,2.89-128-.44-1.54,21.69-.49,40.68,3.61,57.33a111.94,111.94,0,0,0,8.23,22.78C245.06,323.67,278.19,299.77,349.22,299.61Z" transform="translate(-72.56 -244.19)"/></svg>