<svg width="49" height="50" viewBox="0 0 49 50" fill="none" xmlns="http://www.w3.org/2000/svg">
<ellipse cx="24.2341" cy="24.6551" rx="24.2341" ry="24.6551" fill="#FFF3F3"/>
<path d="M19.6129 15.0994C19.206 15.1778 19.0823 15.2131 18.8669 15.2954C18.1529 15.5816 17.5146 16.2088 17.2234 16.9145C17.0558 17.3262 17 17.6751 17 18.369V18.9963H24.1805H31.361V18.369C31.361 17.6751 31.3051 17.3262 31.1376 16.9145C30.8504 16.2206 30.2001 15.5737 29.518 15.3071C28.9954 15.0994 29.0154 15.1033 27.1444 15.0876L25.3772 15.0719V15.856V16.644H24.1805H22.9837V15.8599V15.0758L21.3402 15.0798C20.4347 15.0837 19.6568 15.0915 19.6129 15.0994Z" fill="#ED0E29"/>
<path d="M21.0248 22.1991V24.2299L20.4264 24.6729L19.832 25.1159L20.195 25.5863C20.5222 26.0058 20.566 26.049 20.6259 26.0019C20.6618 25.9705 22.3771 24.6807 24.4395 23.1322C26.5019 21.5836 28.2252 20.2859 28.2691 20.2428C28.3449 20.1722 28.2492 20.1722 24.6868 20.1722H21.0288L21.0248 22.1991Z" fill="#ED0E29"/>
<path d="M24.1804 24.7753L21.0489 27.1315L21.0369 27.7078L21.025 28.2802L20.4306 28.7232C20.0596 29.0015 19.8482 29.1858 19.8641 29.2133C19.9319 29.3269 20.5343 30.0875 20.5582 30.0914C20.5782 30.0914 28.381 24.2421 28.4967 24.1363C28.5246 24.1128 27.8943 23.262 27.8145 23.2111C27.7946 23.1993 27.6869 23.262 27.5752 23.3483C27.4635 23.4345 27.3637 23.5051 27.3558 23.5051C27.3438 23.5051 27.3278 23.262 27.3239 22.9641L27.3119 22.4191L24.1804 24.7753Z" fill="#ED0E29"/>
<path d="M24.1721 28.8445L21.0286 31.2085V31.777L21.0247 32.3455L20.4263 32.7885C19.8957 33.1844 19.8359 33.2393 19.8798 33.302C19.9077 33.3373 20.0712 33.549 20.2468 33.7686L20.5579 34.1685L20.7055 34.0587C20.7853 33.996 22.4647 32.7336 24.4394 31.2477C26.414 29.7619 28.1413 28.4642 28.2769 28.3584L28.5283 28.1623L28.1653 27.6958L27.8022 27.2293L27.5749 27.4057L27.3515 27.5821L27.3315 27.0293L27.3116 26.4805L24.1721 28.8445Z" fill="#ED0E29"/>
<path d="M25.0098 32.259C23.7452 33.2116 22.708 34.0035 22.708 34.0153C22.7041 34.0271 23.0352 34.2858 23.442 34.5916L24.18 35.1483L25.7558 33.9643L27.3315 32.7765V31.6513C27.3315 31.0279 27.3275 30.5222 27.3235 30.5261C27.3155 30.5261 26.2744 31.3063 25.0098 32.259Z" fill="#ED0E29"/>
</svg>
