<svg width="206" height="197" viewBox="0 0 206 197" fill="none" xmlns="http://www.w3.org/2000/svg">
<path fill-rule="evenodd" clip-rule="evenodd" d="M0 173.67C7.79 123.22 6.83 72.96 0 22.42C0 10.07 10.77 0 24.17 0C78.91 8.5 131.28 8.32 181.64 0C194.78 0 205.64 10.07 205.64 22.42C199.51 72.43 199.51 122.7 205.64 173.67C205.64 186.11 194.78 196.09 181.64 196.09C128.57 189.61 76.11 189.96 24.17 196.09C10.77 196.09 0 186.1 0 173.67Z" fill="white"/>
<path fill-rule="evenodd" clip-rule="evenodd" d="M0 173.67C7.79 123.22 6.83 72.96 0 22.42C0 10.07 10.77 0 24.17 0C78.91 8.5 131.28 8.32 181.64 0C194.78 0 205.64 10.07 205.64 22.42C199.51 72.43 199.51 122.7 205.64 173.67C205.64 186.11 194.78 196.09 181.64 196.09C128.57 189.61 76.11 189.96 24.17 196.09C10.77 196.09 0 186.1 0 173.67Z" fill="white"/>
<path fill-rule="evenodd" clip-rule="evenodd" d="M48.1299 84.53C48.4599 85.2 48.7999 85.89 49.1699 86.59C56.7199 102.92 67.0799 116.22 79.8699 127.24C86.9999 133.39 94.9999 139.44 104.2 144.56C131 127.95 145.85 106.43 154.95 84.51L155.53 84.13C155.53 84.13 160.71 71.53 162.99 54.09C100.38 52.13 60.8599 75.57 48.1299 84.53Z" fill="#E20E17"/>
<path d="M201.15 24.52C201.15 14.45 192.22 6.21997 181.36 6.21997C177.51 6.65997 173.65 7.00999 169.71 7.35999C171.02 28.55 171.99 111.05 110.42 145.3C109.98 145.83 109.54 146.35 109.11 146.88C131 158 159.56 163.52 199.32 153.45L199.5 153.27C196.6 110.35 197.39 67.44 201.15 24.52Z" fill="black"/>
<path d="M4.80005 24.52C10.76 75.05 10.76 124.8 4.80005 174.02C4.80005 184.27 13.82 192.41 24.59 192.41C76.96 187.33 129.07 186.8 181.36 192.41C192.22 192.41 201.15 184.27 201.15 174.02C200.62 168.59 200.19 162.99 199.66 157.47C187.49 161.32 174.53 163.69 161.04 163.69C90.1001 163.69 32.39 103.44 32.39 29.34C32.39 21.72 33.1801 14.28 34.3201 7.09998C31.0801 6.91998 27.8401 6.56997 24.6001 6.21997C13.8201 6.21997 4.80005 14.45 4.80005 24.52Z" fill="black"/>
<path fill-rule="evenodd" clip-rule="evenodd" d="M162.63 55.43C163.89 46.62 165.1 35.05 165.52 21.29V7.89001C126.9 10.69 78.2899 10.78 37.4799 7.45001C35.9399 29.14 36.9799 48.13 41.0899 64.78C41.3999 66.03 43.9399 76.89 49.3099 87.57C58.4699 79.49 91.5999 55.58 162.63 55.43Z" fill="url(#paint0_linear_547_15317)"/>
<defs>
<linearGradient id="paint0_linear_547_15317" x1="101.164" y1="87.5603" x2="101.164" y2="7.44521" gradientUnits="userSpaceOnUse">
<stop stop-color="#5B5957"/>
<stop offset="0.4832" stop-color="#A9A09E"/>
<stop offset="1" stop-color="#A9A09E"/>
</linearGradient>
</defs>
</svg>
