<svg width="1920" height="700" viewBox="0 0 1920 700" fill="none" xmlns="http://www.w3.org/2000/svg">
<g clip-path="url(#clip0_581_15471)">
<rect width="1920" height="700" fill="white"/>
<path opacity="0.1" d="M420 700C420 880.597 273.597 1027 93 1027C-87.5971 1027 -234 880.597 -234 700C-234 519.403 -87.5971 373 93 373C273.597 373 420 519.403 420 700ZM-119.799 700C-119.799 817.525 -24.5254 912.799 93 912.799C210.525 912.799 305.799 817.525 305.799 700C305.799 582.475 210.525 487.201 93 487.201C-24.5254 487.201 -119.799 582.475 -119.799 700Z" fill="#FF2424"/>
<path opacity="0.1" d="M1526 720C1526 802.843 1458.84 870 1376 870C1293.16 870 1226 802.843 1226 720C1226 637.157 1293.16 570 1376 570C1458.84 570 1526 637.157 1526 720ZM1278.39 720C1278.39 773.911 1322.09 817.614 1376 817.614C1429.91 817.614 1473.61 773.911 1473.61 720C1473.61 666.089 1429.91 622.386 1376 622.386C1322.09 622.386 1278.39 666.089 1278.39 720Z" fill="#FF2424"/>
<path opacity="0.1" d="M2116 23C2116 203.597 1969.6 350 1789 350C1608.4 350 1462 203.597 1462 23C1462 -157.597 1608.4 -304 1789 -304C1969.6 -304 2116 -157.597 2116 23ZM1576.2 23C1576.2 140.525 1671.47 235.799 1789 235.799C1906.53 235.799 2001.8 140.525 2001.8 23C2001.8 -94.5254 1906.53 -189.799 1789 -189.799C1671.47 -189.799 1576.2 -94.5254 1576.2 23Z" fill="#FF2424"/>
</g>
<defs>
<clipPath id="clip0_581_15471">
<rect width="1920" height="700" fill="white"/>
</clipPath>
</defs>
</svg>
