<svg width="1381" height="1433" viewBox="0 0 1381 1433" fill="none" xmlns="http://www.w3.org/2000/svg">
<path d="M146.493 290.982C67.2665 365.548 9.40922 449.683 1.46156 537.763C-9.30667 655.614 50.9041 761.161 153.271 830.527C211.513 870.099 285.214 895.031 358.924 918.262C424.465 938.874 515.443 954.856 558.198 998.165C616.081 1056.79 561.019 1284.56 672.104 1384.44C783.189 1484.33 1034.03 1411.56 1160.2 1315.51C1286.36 1219.46 1219.29 1105.66 1312.73 1009.46C1406.16 913.257 1418.66 718.491 1244.36 566.706C1070.05 414.92 975.754 337.986 972.637 216.4C969.521 94.815 906.647 -45.0995 654.836 14.9558C554.02 38.9898 455.225 78.3032 366.98 130.146C289.583 175.642 210.965 230.198 146.493 290.982Z" fill="#FF0000" fill-opacity="0.9"/>
</svg>
