<svg width="33" height="121" viewBox="0 0 33 121" fill="none" xmlns="http://www.w3.org/2000/svg">
<path d="M8.65 7.06105C8.3 8.0219 8.85 8.66247 10.25 9.03614C11 9.24966 10.9 9.30304 9.9 9.35642C8 9.4098 8.1 10.4774 10 10.4774C11.15 10.4774 11.5 10.2639 11.5 9.4098C11.5 8.76923 11 8.12866 10.4 7.80838L9.25 7.32795H10.4C11.95 7.27457 11.8 6.20695 10.25 6.20695C9.55 6.20695 8.85 6.58062 8.65 7.06105Z" fill="black"/>
<path d="M12.05 8.182C12 10.0503 12.2 10.4774 13.1 10.7977C13.85 11.0112 14.35 10.851 14.85 10.1571C15.6 9.0361 15.75 6.20691 15 6.20691C14.75 6.20691 14.5 6.95424 14.5 7.86172C14.5 10.0503 12.9 9.78343 12.45 7.54143C12.15 6.10015 12.1 6.15353 12.05 8.182Z" fill="black"/>
<path d="M16.1 8.44899C15.55 10.7977 15.75 11.812 16.5 10.5308C16.7 10.1038 17.35 9.89027 17.95 10.1038C19.15 10.4241 19.2 10.2106 18.45 7.8618C17.7 5.56642 16.7 5.77995 16.1 8.44899ZM17.7 8.07532C17.85 8.50237 17.75 8.87603 17.5 8.87603C17.2 8.87603 17 8.50237 17 8.07532C17 7.64827 17.1 7.27461 17.2 7.27461C17.3 7.27461 17.5 7.64827 17.7 8.07532Z" fill="black"/>
<path d="M4.34999 12.9863C3.79999 13.5201 3.94999 16.7763 4.49999 17.15C4.79999 17.3635 4.99999 16.8297 5.04999 15.9756L5.09999 14.4809L5.59999 15.9222C5.84999 16.7763 6.24999 17.4169 6.49999 17.4169C6.69999 17.4169 7.04999 16.7763 7.29999 15.9222L7.64999 14.4809L7.99999 16.0824C8.34999 17.4703 8.39999 17.3635 8.44999 15.1215C8.49999 12.5592 7.64999 11.5984 7.14999 13.6802C6.99999 14.2674 6.69999 14.7478 6.49999 14.7478C6.29999 14.7478 5.99999 14.2674 5.84999 13.6802C5.59999 12.6126 4.94999 12.2923 4.34999 12.9863Z" fill="black"/>
<path d="M10.1 13.5201C9.85001 14.0539 9.50001 15.1215 9.35001 15.8688C9.05001 17.15 9.15001 17.2034 10.75 17.2034C11.7 17.15 12.5 17.0432 12.5 16.8831C12.5 16.7229 12.25 15.7087 11.95 14.5877C11.4 12.4525 10.8 12.0788 10.1 13.5201ZM11.5 15.335C11.5 15.6019 11.3 15.8155 11 15.8155C10.75 15.8155 10.5 15.4418 10.5 14.9614C10.5 14.5343 10.75 14.3208 11 14.4809C11.3 14.6411 11.5 15.0148 11.5 15.335Z" fill="black"/>
<path d="M13 15.0147C13 16.3493 13.25 17.4169 13.5 17.4169C13.8 17.4169 14 17.0432 14 16.6162C14 16.1891 14.35 15.8154 14.75 15.8154C15.15 15.8154 15.5 16.1891 15.5 16.6162C15.5 17.0432 15.75 17.4169 16 17.4169C16.3 17.4169 16.5 17.15 16.5 16.7763C16.5 16.2959 16.65 16.2959 17.1 16.7763C17.85 17.577 19.5 17.6304 19.5 16.8831C19.5 16.5628 19.05 16.3493 18.5 16.3493C17.1 16.3493 17.2 14.3208 18.65 13.7336C19.65 13.3065 19.65 13.1998 18.85 12.8795C18.3 12.6126 17.6 12.8261 17.05 13.3599C16.25 14.1606 16.1 14.1606 15.85 13.4133C15.65 12.9863 14.95 12.6126 14.25 12.6126C13.1 12.6126 13 12.8261 13 15.0147ZM15.35 14.5343C15.2 14.6944 14.75 14.7478 14.4 14.5877C14 14.4275 14.15 14.2674 14.7 14.2674C15.25 14.214 15.55 14.3742 15.35 14.5343Z" fill="black"/>
<path d="M20.6 14.6945C19.8 17.4169 19.85 17.5237 21 16.7763C21.85 16.1892 22.1 16.2425 22.5 16.8831C22.75 17.3102 23.1 17.5237 23.25 17.3102C23.6 16.9365 22.05 12.6126 21.5 12.6126C21.3 12.6126 20.9 13.5201 20.6 14.6945ZM21.8 15.6554C21.25 16.2425 20.85 15.3351 21.25 14.3742C21.65 13.4667 21.65 13.4667 21.85 14.3742C22 14.908 21.95 15.4952 21.8 15.6554Z" fill="black"/>
<path d="M23.5 17.8973C22.8 18.4311 20.25 20.0859 17.8 21.5272L13.3 24.1962L11.3 22.9151C8.7 21.367 4.8 19.9258 3.65 20.1927C3.05 20.2994 3.5 20.8866 5.25 22.061C6.65 23.0218 8.65 24.73 9.75 25.9044C10.8 27.1322 11.9 28.093 12.15 28.093C12.4 28.093 15.75 25.5841 19.6 22.488C23.45 19.3919 26.15 16.8831 25.65 16.8831C25.15 16.8831 24.2 17.3635 23.5 17.8973Z" fill="black"/>
<path d="M25.65 26.6518C22.6 29.2675 22.5 29.4276 22.5 31.7763V34.2319L25.6 35.4062C27.3 36.1002 28.75 36.5272 28.85 36.4205C28.95 36.3137 28.95 33.4845 28.9 30.0682L28.75 23.9294L25.65 26.6518Z" fill="black"/>
<path d="M0 32.4703C0 35.2995 0.1 35.6197 0.9 35.2995C1.35 35.0326 3.2 34.3386 4.95 33.698C6.75 33.0575 8.25 32.3101 8.35 31.9899C8.55 31.3493 4.9 29.9614 1.9 29.5343L0 29.2141V32.4703Z" fill="black"/>
<path d="M16.25 32.8973C16.1 33.1642 16.2 33.4312 16.45 33.4312C16.75 33.4312 17 33.1642 17 32.8973C17 32.5771 16.9 32.3635 16.8 32.3635C16.65 32.3635 16.4 32.5771 16.25 32.8973Z" fill="black"/>
<path d="M11.65 33.8048C12.1 33.9116 12.8 33.9116 13.15 33.8048C13.45 33.6447 13.1 33.5379 12.25 33.5379C11.45 33.5379 11.15 33.6447 11.65 33.8048Z" fill="black"/>
<path d="M3.15 35.086L0 36.1536V39.4098V42.6127L1.9 40.8511C2.9 39.8369 4.8 38.2888 6.1 37.4347C8.7 35.7265 9.35 33.965 7.4 34.0184C6.75 34.0184 4.85 34.4988 3.15 35.086Z" fill="black"/>
<path d="M22.5 37.061C22.5 37.9685 23 39.0895 23.75 39.8368L25 41.0645V63.4311V85.7443H26.75H28.5V81.0468C28.5 78.4845 28.55 67.7016 28.6 57.0254L28.75 37.7016L26.1 36.6339C22.7 35.246 22.5 35.2994 22.5 37.061Z" fill="black"/>
<path d="M1.65 48.3777C0.5 50.4062 0.5 50.7798 0.5 68.0752V85.7443H1.65H2.75V65.9934C2.75 55.1571 2.75 46.2425 2.75 46.2425C2.75 46.2425 2.25 47.2033 1.65 48.3777Z" fill="black"/>
<path d="M15.2 64.1251C14.3 64.8724 14.3 64.9258 15.45 64.7123C16.15 64.6589 16.8 64.2852 16.9 63.965C17.15 63.1109 16.4 63.1642 15.2 64.1251Z" fill="black"/>
<path d="M32.113 45.8468C31.8913 71.7286 32.0021 101.308 32.3902 114.249C32.8337 129.038 33 116.097 33 66.1825C33 -13.3116 32.6119 -22.5551 32.113 45.8468Z" fill="black"/>
<path d="M12.75 73.4667C12.9 73.7336 13.15 74.0005 13.3 74.0005C13.4 74.0005 13.5 73.7336 13.5 73.4667C13.5 73.1464 13.25 72.9329 12.95 72.9329C12.7 72.9329 12.6 73.1464 12.75 73.4667Z" fill="black"/>
<path d="M14 73.4667C14 73.7336 14.8 74.0005 15.8 74.0005C16.85 74.0005 17.45 73.787 17.25 73.4667C17.1 73.1464 16.3 72.9329 15.45 72.9329C14.65 72.9329 14 73.1464 14 73.4667Z" fill="black"/>
<path d="M13.4 75.4418C14 75.5485 15 75.5485 15.65 75.4418C16.25 75.335 15.75 75.2283 14.5 75.2283C13.25 75.2283 12.75 75.335 13.4 75.4418Z" fill="black"/>
<path d="M14.25 76.6162C12.35 77.0433 13.2 77.6305 15.5 77.4703C18.15 77.3102 18.3 77.2034 17.5 76.6696C16.7 76.0824 16.45 76.0824 14.25 76.6162Z" fill="black"/>
<path d="M13.4 79.1785C14 79.2852 15 79.2852 15.65 79.1785C16.25 79.0717 15.75 78.965 14.5 78.965C13.25 78.965 12.75 79.0717 13.4 79.1785Z" fill="black"/>
<path d="M12 80.0859C12 80.1927 12.35 80.4596 12.8 80.6197C13.2 80.7798 13.4 80.7265 13.25 80.4062C12.95 79.8724 12 79.6589 12 80.0859Z" fill="black"/>
<path d="M14 80.4063C14 80.6732 14.7 80.9401 15.5 80.9401C16.35 80.9401 17 80.6732 17 80.4063C17 80.086 16.35 79.8724 15.5 79.8724C14.7 79.8724 14 80.086 14 80.4063Z" fill="black"/>
<path d="M13.4 82.9152C14 83.0219 15 83.0219 15.65 82.9152C16.25 82.8084 15.75 82.7016 14.5 82.7016C13.25 82.7016 12.75 82.8084 13.4 82.9152Z" fill="black"/>
<path d="M6.7 84.2497C6.55 84.4632 6.9 84.6768 7.45 84.6768C8.05 84.6768 8.5 84.4632 8.5 84.2497C8.5 83.9828 8.15 83.7693 7.75 83.7693C7.3 83.7693 6.85 83.9828 6.7 84.2497Z" fill="black"/>
<path d="M13.5 84.1429C13.5 84.4099 14.15 84.6768 14.95 84.6768C15.8 84.6768 16.6 84.4099 16.75 84.1429C16.95 83.8227 16.35 83.6091 15.3 83.6091C14.3 83.6091 13.5 83.8227 13.5 84.1429Z" fill="black"/>
<path d="M21.25 84.1429C21.1 84.4099 21.2 84.6768 21.45 84.6768C21.75 84.6768 22 84.4099 22 84.1429C22 83.8227 21.9 83.6091 21.8 83.6091C21.65 83.6091 21.4 83.8227 21.25 84.1429Z" fill="black"/>
<path d="M0 103.36C0 115.691 0.15 119.481 0.65 119.641C0.95 119.748 2.1 119.961 3.2 120.015L5.1 120.175L6.45 116.171L7.75 112.168L14.25 112.008L20.8 111.848L22.05 116.011L23.35 120.175L25.3 120.122C29.25 120.068 29 121.296 29 103.36V87.2924L24.65 87.7194C19.05 88.2532 11.1 88.2532 4.9 87.7194L0 87.2924V103.36ZM24.85 93.4845C24.65 93.9116 24 94.2852 23.3 94.2852C21.4 94.2852 21.2 95.3529 23.1 95.4062L24.75 95.4596L22.75 96.1536C21.35 96.634 21.1 96.8475 21.9 96.9009C22.65 96.9543 23 97.2746 23 98.0219C23 98.6625 22.5 99.303 21.9 99.6233C20.75 100.104 20.75 100.104 21.85 100.104C22.65 100.157 22.85 100.424 22.65 101.278C22.4 102.186 22.55 102.346 23.5 102.186C24.3 102.079 24.7 102.292 24.75 102.933C24.95 104.214 21.25 104.961 14.95 104.961C8 104.961 8 104.961 8 98.9294C8 96.207 8.2 93.6981 8.4 93.3778C8.7 92.8973 11.15 92.6838 16.75 92.5771C21.15 92.4703 24.85 92.4703 24.95 92.5237C25.05 92.5771 25 93.0041 24.85 93.4845ZM5 101.812C5 102.399 4.85 102.826 4.65 102.826C4.4 102.826 4.35 104.374 4.4 106.296C4.55 109.392 4.5 109.766 3.65 109.766C2.85 109.766 2.75 109.339 2.9 106.029C3 103.947 3.3 102.292 3.6 102.292C3.9 102.292 4 101.705 3.9 100.958C3.7 99.8902 3.75 99.7301 4.3 100.211C4.7 100.531 5 101.278 5 101.812ZM6.25 110.193C5.75 110.727 5.5 109.926 5.2 106.723C4.95 104.321 5.05 103.253 5.55 102.666C6.15 101.972 6.25 102.453 6.4 105.869C6.5 108.111 6.4 110.033 6.25 110.193Z" fill="black"/>
<path d="M10.1 95.1394C10.7 95.7266 16.5 95.9935 16.5 95.4063C16.5 95.0326 15.2 94.8191 13.15 94.8191C11.35 94.8191 9.95001 94.9258 10.1 95.1394Z" fill="black"/>
<path d="M10.75 96.9542C10.9 97.2211 11.95 97.488 13.05 97.488C14.1 97.488 15 97.2211 15 96.9542C15 96.6339 13.95 96.4204 12.7 96.4204C11.35 96.4204 10.55 96.6339 10.75 96.9542Z" fill="black"/>
<path d="M15.5 96.9542C15.5 97.2211 15.95 97.488 16.55 97.488C17.1 97.488 17.4 97.2211 17.25 96.9542C17.1 96.6339 16.6 96.4204 16.2 96.4204C15.8 96.4204 15.5 96.6339 15.5 96.9542Z" fill="black"/>
<path d="M10.7 98.6091C10.55 98.876 11.7 99.0361 13.25 99.0361C14.75 98.9828 16 98.7692 16 98.4489C16 97.8618 11.05 98.0219 10.7 98.6091Z" fill="black"/>
<path d="M17.75 98.5557C17.6 98.876 17.8 98.9294 18.2 98.7692C19.1 98.3956 19.25 98.0219 18.55 98.0219C18.25 98.0219 17.9 98.2354 17.75 98.5557Z" fill="black"/>
<path d="M11.5 100.264C11.5 100.531 12.75 100.691 14.25 100.691C15.85 100.691 17 100.477 17 100.157C17 99.7834 15.95 99.6233 14.25 99.7301C12.75 99.8368 11.5 100.05 11.5 100.264Z" fill="black"/>
<path d="M12.5 101.759C12.5 101.972 13.5 102.186 14.75 102.186C16 102.239 17 102.079 17 101.812C17 101.545 16 101.331 14.75 101.385C13.5 101.385 12.5 101.598 12.5 101.759Z" fill="black"/>
<path d="M20.4 101.598C20.75 101.759 21.2 101.705 21.35 101.545C21.55 101.385 21.25 101.225 20.7 101.278C20.15 101.278 20 101.438 20.4 101.598Z" fill="black"/>
<path d="M11.75 114.036C11.9 114.303 12.15 114.57 12.3 114.57C12.4 114.57 12.5 114.303 12.5 114.036C12.5 113.716 12.25 113.502 11.95 113.502C11.7 113.502 11.6 113.716 11.75 114.036Z" fill="black"/>
<path d="M13 114.036C13 114.303 13.35 114.57 13.8 114.57C14.2 114.57 14.4 114.303 14.25 114.036C14.1 113.716 13.75 113.502 13.45 113.502C13.2 113.502 13 113.716 13 114.036Z" fill="black"/>
<path d="M15.75 114.036C15.6 114.303 15.8 114.57 16.25 114.57C16.7 114.57 16.9 114.303 16.75 114.036C16.6 113.716 16.35 113.502 16.25 113.502C16.15 113.502 15.9 113.716 15.75 114.036Z" fill="black"/>
<path d="M11.05 116.331C10.7 116.812 10.5 117.506 10.6 117.826C10.85 118.627 13.4 118.947 13.8 118.2C14 117.826 14.25 117.88 14.5 118.307C15.05 119.267 16 118.413 16 116.919C16 115.424 15.25 115.21 14.55 116.545C14.05 117.452 14.05 117.452 14 116.545C14 115.21 12.95 115.424 12.6 116.812L12.3 118.04L12 116.759C11.75 115.638 11.65 115.584 11.05 116.331Z" fill="black"/>
<path d="M16.7 116.865C16.55 117.346 16.55 118.146 16.7 118.627C16.85 119.054 16.8 119.267 16.5 119.107C16.2 118.947 16 119.054 16 119.321C16 120.602 17.4 119.801 17.65 118.413C17.95 116.759 17.2 115.531 16.7 116.865Z" fill="black"/>
</svg>
