<svg width="73" height="69" viewBox="0 0 73 69" fill="none" xmlns="http://www.w3.org/2000/svg">
<ellipse cx="36.3112" cy="34.3173" rx="36.3109" ry="34.3174" transform="rotate(180 36.3112 34.3173)" fill="#FFE1E5"/>
<rect opacity="0.01" x="54.4668" y="17.1587" width="34.3174" height="36.3109" transform="rotate(90 54.4668 17.1587)" fill="#ED0E29"/>
<path d="M46.9023 32.8876H28.9587L34.4507 26.6532C34.9855 26.0452 34.8974 25.1425 34.254 24.6371C33.6106 24.1317 32.6555 24.2149 32.1208 24.823L24.556 33.4023C24.5051 33.4706 24.4596 33.5423 24.4198 33.6168C24.4198 33.6883 24.4198 33.7312 24.3139 33.8027C24.2453 33.9667 24.2094 34.1412 24.208 34.3175C24.2094 34.4938 24.2453 34.6683 24.3139 34.8322C24.3139 34.9037 24.3139 34.9466 24.4198 35.0181C24.4596 35.0927 24.5051 35.1644 24.556 35.2326L32.1208 43.812C32.4088 44.1387 32.8357 44.3274 33.2857 44.3267C33.6392 44.3274 33.9818 44.211 34.254 43.9978C34.5634 43.7554 34.7581 43.4066 34.795 43.0283C34.8319 42.6501 34.708 42.2735 34.4507 41.9817L28.9587 35.7474H46.9023C47.7379 35.7474 48.4153 35.1072 48.4153 34.3175C48.4153 33.5278 47.7379 32.8876 46.9023 32.8876Z" fill="#ED0E29"/>
</svg>
